<svg width="358" height="175" viewBox="0 0 358 175" fill="none" xmlns="http://www.w3.org/2000/svg">
<path fill-rule="evenodd" clip-rule="evenodd" d="M125.306 127.223V137.95H37.2196V37.04H125.296V47.7798H162.51V0H0V175H162.51V127.223H125.306Z" fill="#FFD300"/>
<path fill-rule="evenodd" clip-rule="evenodd" d="M346.919 57.9827C345.175 57.9831 343.47 57.4685 342.02 56.5041C340.569 55.5396 339.438 54.1686 338.771 52.5644C338.103 50.9603 337.928 49.195 338.268 47.4919C338.608 45.7887 339.448 44.2242 340.681 42.9962C341.914 41.7682 343.486 40.9319 345.196 40.593C346.907 40.2541 348.68 40.4279 350.292 41.0923C351.903 41.7568 353.281 42.8821 354.25 44.3259C355.219 45.7697 355.736 47.4671 355.736 49.2036C355.74 50.3574 355.515 51.5006 355.073 52.5674C354.632 53.6342 353.982 54.6035 353.163 55.4194C352.343 56.2354 351.37 56.882 350.298 57.3219C349.227 57.7618 348.078 57.9863 346.919 57.9827ZM346.919 38.167C344.727 38.1659 342.583 38.8122 340.759 40.0242C338.935 41.2363 337.513 42.9595 336.673 44.9761C335.833 46.9926 335.613 49.2118 336.04 51.3531C336.467 53.4943 337.523 55.4613 339.073 57.0054C340.623 58.5494 342.598 59.6011 344.749 60.0274C346.9 60.4537 349.129 60.2355 351.155 59.4004C353.181 58.5652 354.913 57.1507 356.131 55.3357C357.35 53.5206 358 51.3866 358 49.2036C358.003 47.7538 357.719 46.3178 357.163 44.9777C356.607 43.6377 355.791 42.42 354.762 41.3946C353.732 40.3692 352.51 39.5563 351.164 39.0024C349.818 38.4485 348.376 38.1646 346.919 38.167ZM346.609 48.9908H345.672V45.6749H346.703C347.756 45.6749 348.547 46.1257 348.547 47.2741C348.547 48.4171 347.73 48.9908 346.609 48.9908ZM348.278 50.4408C349.073 50.3305 349.799 49.936 350.323 49.3311C350.847 48.7262 351.131 47.9522 351.123 47.1537C351.135 46.6002 351.015 46.0519 350.773 45.5534C350.531 45.0549 350.174 44.6205 349.731 44.2856C348.671 43.6696 347.449 43.3864 346.225 43.4729H343.033V54.9603H345.672V50.4692L348.547 54.9939H351.765C351.46 54.6006 349.605 51.977 349.605 51.977C349.225 51.415 348.779 50.8994 348.278 50.4408ZM314.457 85.1124C311.76 84.1535 309.191 82.8726 306.805 81.2979C306.276 80.9687 305.844 80.5074 305.551 79.96C305.258 79.4127 305.115 78.7984 305.135 78.1784C305.14 75.696 307.405 73.8946 311.412 73.8583C316.262 73.9863 321.068 74.8036 325.685 76.2854L326.575 76.5298V64.193L326.043 64.0592C320.297 62.4627 314.365 61.6288 308.4 61.579C303.478 61.3375 298.619 62.7695 294.622 65.6399C292.952 66.9958 291.619 68.7173 290.727 70.6702C289.834 72.6231 289.407 74.7547 289.477 76.8991C289.462 83.199 293.332 87.76 301.669 91.7183C304.248 92.8108 306.733 94.11 309.1 95.6031C309.812 96.0104 310.405 96.5968 310.818 97.3034C311.231 98.0101 311.451 98.8124 311.455 99.63C311.423 102.461 309.327 104.086 304.861 104.157C299.942 104.084 295.067 103.236 290.415 101.643L289.477 101.3V113.717L289.998 113.854C295.842 115.541 301.894 116.411 307.978 116.439C313.168 116.707 318.3 115.241 322.557 112.273C324.314 110.883 325.718 109.101 326.657 107.071C327.595 105.041 328.042 102.82 327.96 100.587C328.002 93.443 323.857 88.9292 314.457 85.1124H314.457ZM265.146 115.259H280.799V38.5314H265.146V115.259ZM242.422 84.9524H224.58C225.212 77.3498 228.55 73.334 233.69 73.3235C239.03 73.3417 242.37 77.5204 242.422 84.5828L242.422 84.9524ZM233.475 61.579C230.124 61.5142 226.796 62.1498 223.707 63.4449C220.619 64.74 217.837 66.6656 215.542 69.0975C210.85 74.389 208.352 81.2574 208.553 88.313C208.355 93.1735 209.466 97.9985 211.77 102.289C214.073 106.579 217.487 110.178 221.657 112.714C226.832 115.467 232.666 116.755 238.525 116.439C243.759 116.466 248.965 115.661 253.945 114.056L254.44 113.907V102.052L253.502 102.388C249.294 103.949 244.826 104.695 240.336 104.587C231.426 104.537 225.897 100.731 224.838 94.0255H255.789L255.92 93.4954C256.663 90.8741 257.029 88.1608 257.005 85.4371C257.205 79.0558 254.85 72.857 250.459 68.2038C248.221 66.0201 245.563 64.308 242.644 63.1697C239.726 62.0315 236.608 61.4905 233.475 61.579H233.475ZM196.93 103.415C195.8 103.561 194.651 103.466 193.56 103.137C192.469 102.809 191.46 102.254 190.6 101.51C189.169 99.4297 188.544 96.904 188.841 94.4004V75.3501H202.981V62.9689H188.841V45.9107L173.183 54.9389V96.6416C173.183 103.3 174.674 108.233 178.029 111.503C181.383 114.769 186.45 116.224 193.275 116.224C196.565 116.267 199.85 115.939 203.066 115.246L203.634 115.136V102.598L202.771 102.792C200.858 103.245 198.896 103.455 196.93 103.415ZM147.509 104.802C145.575 105.117 143.617 105.258 141.658 105.224C134.432 105.145 131.462 103.171 131.436 99.0949C131.401 97.8066 131.758 96.5379 132.46 95.4551C133.162 94.3723 134.176 93.5259 135.37 93.0267C139.21 91.4341 143.351 90.6865 147.509 90.8349V104.802ZM141.452 61.579C134.231 61.5906 127.1 63.1837 120.565 66.2455L120.181 66.4343V78.1468L121.197 77.6201C126.673 74.8165 132.725 73.3084 138.882 73.2133C145.055 73.3286 147.414 75.3131 147.509 80.2095V81.4314H145.74C127.928 81.4499 116.226 88.7091 116.21 100.584C116.083 102.953 116.595 105.313 117.693 107.418C118.791 109.524 120.436 111.298 122.456 112.557C128.096 115.514 134.449 116.858 140.81 116.439C147.926 116.448 155.023 115.691 161.976 114.179L162.508 114.053V82.3386C162.508 75.5724 161.666 71.4439 159.254 68.3583C155.651 63.8678 149.61 61.5739 141.452 61.579ZM96.4713 85.1124C93.778 84.1544 91.2119 82.8735 88.8297 81.2979C88.2983 80.9707 87.8631 80.5098 87.5681 79.9615C87.2731 79.4133 87.1287 78.7972 87.1495 78.1756C87.1549 75.7012 89.4188 73.8947 93.4112 73.8583C98.2692 73.9862 103.084 74.8035 107.71 76.2854L108.589 76.5298V64.193L108.068 64.0592C102.32 62.463 96.3864 61.6291 90.4196 61.579C85.4991 61.3372 80.6423 62.7693 76.6478 65.6399C74.9737 66.993 73.6371 68.7137 72.7426 70.6671C71.8482 72.6205 71.4202 74.7535 71.4922 76.8991C71.4764 83.2033 75.3422 87.7648 83.6787 91.7183C86.2588 92.8113 88.7458 94.1105 91.1153 95.6031C91.8286 96.0087 92.4214 96.5948 92.8339 97.302C93.2463 98.0091 93.4637 98.8123 93.4639 99.63C93.4375 102.464 91.3415 104.097 86.8809 104.157C81.9606 104.084 77.083 103.235 72.4292 101.643L71.4922 101.3V113.709L72.0132 113.854C77.8554 115.541 83.905 116.411 89.988 116.439C95.1781 116.709 100.31 115.243 104.566 112.273C106.326 110.884 107.733 109.103 108.675 107.073C109.616 105.043 110.065 102.821 109.985 100.587C110.017 93.443 105.877 88.9317 96.4713 85.1124Z" fill="#060B14"/>
</svg>
